Sr.Avila.S01E01-02.1280x1080i.h264.HDTV.THoRCuATo.mkv
Format                           : Matroska
File size                        : 3.70 GiB
Duration                         : 1h 39mn
Overall bit rate                 : 5 304 Kbps
Encoded date                     : UTC 2013-05-27 03:38:13
Writing application              : mkvmerge v6.1.0 ('Old Devil') built on Mar  2 2013 14:32:37
Writing library                  : libebml v1.3.0 + libmatroska v1.4.0

Video
ID                               : 1
Format                           : AVC
Format/Info                      : Advanced Video Codec
Format profile                   : Main@L4.0
Format settings, CABAC           : No
Format settings, ReFrames        : 4 frames
Muxing mode                      : Container profile=Unknown@4.0
Codec ID                         : V_MPEG4/ISO/AVC
Duration                         : 1h 39mn
Bit rate                         : 4 751 Kbps
Width                            : 1 280 pixels
Height                           : 1 080 pixels
Display aspect ratio             : 16:9
Frame rate                       : 59.940 fps
Original frame rate              : 29.970 fps
Color space                      : YUV
Chroma subsampling               : 4:2:0
Bit depth                        : 8 bits
Scan type                        : Interlaced
Scan order                       : Top Field First
Bits/(Pixel*Frame)               : 0.057
Stream size                      : 3.31 GiB (90%)

Audio
ID                               : 2
Format                           : AC-3
Format/Info                      : Audio Coding 3
Mode extension                   : CM (complete main)
Codec ID                         : A_AC3
Duration                         : 1h 39mn
Bit rate mode                    : Constant
Bit rate                         : 448 Kbps
Channel(s)                       : 6 channels
Channel positions                : Front: L C R, Side: L R, LFE
Sampling rate                    : 48.0 KHz
Bit depth                        : 16 bits
Video delay                      : 64ms
Stream size                      : 320 MiB (8%)
Language                         : Spanish